<svg height="48" width="48" xml:space="preserve" xmlns="http://www.w3.org/2000/svg"><path d="M24 14c-3.86 0-7-3.141-7-7s3.14-7 7-7 7 3.141 7 7-3.14 7-7 7zm0-12c-2.757 0-5 2.243-5 5s2.243 5 5 5 5-2.243 5-5-2.243-5-5-5zM27 38h-6a1 1 0 0 1-1-1v-7.967C15.586 26.717 14 20.65 14 16a1 1 0 0 1 1-1h18a1 1 0 0 1 1 1c0 4.65-1.586 10.717-6 13.033V37a1 1 0 0 1-1 1zm-5-2h4v-7.6c0-.402.241-.766.611-.922 3.866-1.63 5.156-6.954 5.359-10.479H16.03c.203 3.524 1.493 8.849 5.359 10.479.37.157.611.52.611.922V36z"/><path d="M24 43c-5.571 0-15-.948-15-4.5 0-1.768 2.292-3.064 6.814-3.855a1 1 0 0 1 .345 1.97c-4.014.701-5.092 1.683-5.161 1.907C11.268 39.358 15.973 41 24 41s12.732-1.642 13.002-2.522c-.069-.179-1.142-1.156-5.136-1.858a1 1 0 0 1 .346-1.97C36.717 35.44 39 36.736 39 38.5c0 3.552-9.429 4.5-15 4.5z"/><path d="M24 48C8.412 48 0 43.363 0 39c0-4.752 8.198-7.504 15.871-8.495a1 1 0 1 1 .256 1.984C6.853 33.687 2 36.671 2 39c0 3.311 9.035 7 22 7s22-3.689 22-7c0-2.329-4.851-5.312-14.122-6.51a1 1 0 0 1-.864-1.12c.07-.549.575-.925 1.12-.864C39.804 31.497 48 34.249 48 39c0 4.363-8.412 9-24 9z"/></svg>